<svg width="724" height="777" viewBox="0 0 724 777" fill="none" xmlns="http://www.w3.org/2000/svg">
<path d="M281.405 586.096L324.509 683.476L153.732 774.723C153.732 774.723 137.031 618.418 281.405 586.096Z" fill="#C3E0FF"/>
<path d="M300.039 427.163L295.753 592.821C295.198 592.754 196.866 647.295 197.555 642.597C198.009 639.497 191.894 504.444 187.697 413.205C187.138 401.084 188.716 388.959 192.36 377.387L260.231 388.897L300.039 427.163Z" fill="#005ABA"/>
<path d="M250.884 662.622L187.533 720.569L138.721 691.698L190.814 619.42L250.884 662.622Z" fill="#9E6C5A"/>
<path d="M245.552 779.212H-0.290482C-0.290482 779.212 55.7835 700.065 153.721 663.602L220.062 696.912C220.062 696.912 236.897 738.879 245.552 779.212Z" fill="#C3E0FF"/>
<path d="M153.114 709.528C153.365 709.527 153.609 709.454 153.82 709.318C154.031 709.183 154.199 708.99 154.305 708.763C154.411 708.535 154.45 708.282 154.418 708.033C154.385 707.784 154.283 707.549 154.123 707.357L128.801 677.012C128.69 676.879 128.553 676.769 128.4 676.689C128.246 676.609 128.078 676.559 127.906 676.544C127.733 676.529 127.559 676.548 127.394 676.6C127.229 676.652 127.075 676.736 126.943 676.848C126.81 676.959 126.7 677.096 126.62 677.25C126.54 677.404 126.491 677.572 126.476 677.745C126.461 677.917 126.48 678.092 126.532 678.257C126.584 678.423 126.668 678.576 126.779 678.709L152.101 709.054C152.225 709.203 152.379 709.323 152.555 709.405C152.73 709.487 152.921 709.529 153.114 709.528Z" fill="#363E44"/>
<path d="M132.215 719.112C132.465 719.111 132.71 719.038 132.921 718.903C133.132 718.767 133.3 718.575 133.406 718.347C133.512 718.119 133.551 717.866 133.518 717.617C133.486 717.368 133.384 717.134 133.224 716.941L107.901 686.596C107.792 686.458 107.656 686.344 107.502 686.259C107.347 686.175 107.178 686.122 107.003 686.104C106.828 686.087 106.651 686.104 106.483 686.156C106.315 686.207 106.159 686.292 106.024 686.405C105.889 686.518 105.778 686.657 105.698 686.814C105.617 686.97 105.569 687.141 105.555 687.317C105.542 687.493 105.564 687.669 105.619 687.836C105.675 688.004 105.763 688.158 105.879 688.29L131.202 718.639C131.326 718.787 131.48 718.906 131.655 718.988C131.83 719.07 132.021 719.113 132.215 719.112Z" fill="#363E44"/>
<path d="M454.903 453.122L245.521 681.623L172.161 623.699L288.793 433.187C288.793 433.187 326.672 378.154 377.164 403.712C427.656 429.27 454.903 453.122 454.903 453.122Z" fill="#005ABA"/>
<mask id="mask0_349_5627" style="mask-type:luminance" maskUnits="userSpaceOnUse" x="189" y="294" width="532" height="211">
<path d="M189.831 294.414H720.109V504.581H189.831V294.414Z" fill="white"/>
</mask>
<g mask="url(#mask0_349_5627)">
<path d="M272.541 306.95C420.2 281.542 563.941 330.635 704.685 435.608C704.685 435.608 714.601 501.696 637.018 519.866C559.435 538.036 300.645 403.711 300.645 403.711L300.038 427.168L192.359 377.396C203.608 341.626 233.824 313.614 272.541 306.95Z" fill="#005ABA"/>
</g>
<path d="M424.822 463.562C425.124 463.564 425.417 463.462 425.652 463.273C425.888 463.085 426.052 462.821 426.117 462.526C426.181 462.231 426.143 461.922 426.009 461.652C425.874 461.382 425.651 461.166 425.377 461.04L273.48 390.792C273.323 390.718 273.152 390.677 272.979 390.669C272.805 390.662 272.632 390.688 272.469 390.748C272.306 390.808 272.156 390.899 272.028 391.016C271.9 391.134 271.796 391.276 271.723 391.434C271.649 391.591 271.608 391.762 271.6 391.936C271.593 392.11 271.619 392.284 271.679 392.447C271.738 392.611 271.829 392.761 271.947 392.889C272.064 393.017 272.206 393.121 272.363 393.195L424.267 463.439C424.441 463.522 424.63 463.564 424.822 463.562Z" fill="#363E44"/>
<path d="M199.256 580.743C199.48 580.741 199.701 580.683 199.896 580.573C200.092 580.462 200.256 580.304 200.373 580.112L294.244 426.37C294.38 426.076 294.403 425.743 294.31 425.433C294.217 425.122 294.013 424.857 293.738 424.687C293.463 424.517 293.135 424.454 292.817 424.51C292.498 424.566 292.211 424.736 292.01 424.99L198.139 578.732C198.048 578.88 197.988 579.044 197.961 579.216C197.934 579.387 197.942 579.563 197.982 579.731C198.023 579.9 198.097 580.059 198.199 580.199C198.301 580.34 198.43 580.458 198.578 580.549C198.781 580.676 199.016 580.743 199.256 580.743Z" fill="#363E44"/>
<path d="M512.009 23.4612C512.009 23.4612 530.878 26.1587 544.645 12.9023C558.412 -0.354109 593.833 -8.38707 622.704 13.7381C680.126 57.7458 677.728 -19.3377 728.689 7.84674V26.8751C723.223 24.8417 714.576 24.92 703.821 36.2027C687.939 52.888 677.814 50.1494 674.969 48.8361C674.436 48.56 674.142 48.3884 674.142 48.3884C674.405 48.5596 674.682 48.7093 674.969 48.8361C678.771 50.8098 694.981 58.0592 707.497 45.8699C715.503 38.0683 723.089 37.878 728.689 39.5607V117.204C728.689 117.204 717.671 146.903 682.849 134.322C648.027 121.741 639.086 80.7216 603.158 96.4742C567.23 112.227 574.886 115.503 541.293 99.3806C507.7 83.2588 512.009 23.4612 512.009 23.4612Z" fill="#363E44"/>
<path d="M508.829 125.842C522.559 128.678 543.241 95.4453 543.241 95.4453L544.597 52.5569C540.643 44.0964 533.543 37.521 524.814 34.236C516.086 30.951 506.421 31.217 497.885 34.9772C489.35 38.7374 482.621 45.6934 479.137 54.3587C475.652 63.0239 475.689 72.7109 479.239 81.3494C479.239 81.3494 494.861 122.958 508.829 125.842Z" fill="#9E6C5A"/>
<path d="M580.789 134.981L542.098 185.25L538.966 147.391L504.841 69.6396L544.448 52.1895L580.789 134.981Z" fill="#9E6C5A"/>
<path d="M486.772 88.3184C486.772 88.3184 481.831 101.981 483.421 104.306C485.335 107.082 496.361 104.433 496.361 104.433C496.361 104.433 486.541 88.4378 486.772 88.3184Z" fill="#9E6C5A"/>
<path d="M515.658 73.9161C515.658 73.9161 508.892 73.3788 502.293 76.2853C500.889 76.9047 508.479 86.9897 509.529 85.7659C514.157 80.3857 515.658 73.9161 515.658 73.9161Z" fill="white"/>
<mask id="mask1_349_5627" style="mask-type:luminance" maskUnits="userSpaceOnUse" x="488" y="73" width="28" height="21">
<path d="M515.658 73.9162C515.658 73.9162 505.704 73.1252 498.156 78.6472C490.608 84.1691 488.366 93.9146 488.366 93.9146C488.366 93.9146 498.335 94.7056 505.85 89.1836C513.364 83.6617 515.658 73.9162 515.658 73.9162Z" fill="white"/>
</mask>
<g mask="url(#mask1_349_5627)">
<path d="M501.887 76.1254C499.638 75.2473 497.179 75.0572 494.823 75.5791C492.466 76.1011 490.316 77.3115 488.646 79.0575C486.976 80.8035 485.86 83.0065 485.44 85.3879C485.019 87.7694 485.313 90.2223 486.284 92.4363C487.255 94.6504 488.86 96.5263 490.895 97.8266C492.93 99.1269 495.304 99.7933 497.717 99.7415C500.131 99.6897 502.474 98.9221 504.452 97.5356C506.43 96.1492 507.953 94.2062 508.828 91.9525C510.002 88.9314 509.93 85.567 508.628 82.599C507.326 79.631 504.902 77.3025 501.887 76.1254Z" fill="#363E44"/>
</g>
<path d="M504.918 108.287C506.034 108.287 507.13 107.991 508.095 107.43C509.059 106.868 509.859 106.061 510.413 105.091C510.966 104.12 511.253 103.02 511.246 101.902C511.238 100.784 510.936 99.6879 510.37 98.7247C510.183 98.4403 509.895 98.2386 509.564 98.1615C509.234 98.0843 508.886 98.1376 508.593 98.3103C508.301 98.483 508.086 98.7619 507.993 99.0891C507.9 99.4163 507.936 99.7668 508.094 100.068C508.456 100.671 508.637 101.366 508.617 102.07C508.597 102.773 508.377 103.456 507.981 104.038C507.586 104.62 507.033 105.076 506.387 105.353C505.742 105.63 505.03 105.716 504.337 105.601C504.166 105.574 503.991 105.581 503.823 105.621C503.654 105.662 503.495 105.735 503.355 105.837C503.215 105.939 503.096 106.068 503.005 106.216C502.915 106.364 502.854 106.528 502.827 106.7C502.8 106.871 502.807 107.046 502.847 107.215C502.888 107.384 502.961 107.543 503.063 107.684C503.164 107.824 503.293 107.943 503.441 108.034C503.588 108.125 503.753 108.186 503.924 108.213C504.253 108.264 504.585 108.289 504.918 108.287Z" fill="#363E44"/>
<path d="M519.683 124.572C519.949 124.575 520.208 124.497 520.428 124.348C532.322 116.36 544.138 97.5072 544.633 96.7088C544.733 96.5618 544.801 96.3963 544.835 96.2222C544.869 96.048 544.867 95.8688 544.831 95.6953C544.794 95.5217 544.723 95.3573 544.621 95.212C544.52 95.0666 544.39 94.9432 544.24 94.8492C544.09 94.7552 543.922 94.6924 543.747 94.6647C543.572 94.6369 543.394 94.6448 543.222 94.6878C543.05 94.7307 542.889 94.808 542.747 94.9148C542.606 95.0216 542.487 95.1559 542.399 95.3097C542.28 95.4999 530.386 114.48 518.961 122.151C518.726 122.31 518.549 122.54 518.455 122.808C518.361 123.076 518.355 123.367 518.439 123.638C518.522 123.909 518.69 124.146 518.918 124.315C519.146 124.483 519.423 124.573 519.706 124.572H519.683Z" fill="#363E44"/>
<path d="M560.006 67.9619C564.616 57.6157 551.441 37.2255 536.706 29.5321C517.714 19.6075 503.169 17.0666 486.72 26.5808C461.882 40.9491 466.984 75.4986 466.984 75.4986C466.984 75.4986 492.701 64.6786 501.463 61.2908C513.8 56.5113 520.395 96.9447 534.524 73.8868C536.08 71.3497 555.616 120.98 577.005 107.877C606.32 89.9304 555.117 78.9387 560.006 67.9619Z" fill="#363E44"/>
<path d="M522.952 82.537C518.18 77.7563 518.18 70.0054 522.952 65.2248C527.723 60.4441 535.459 60.4441 540.231 65.2248C545.002 70.0054 545.002 77.7563 540.231 82.537C535.459 87.3176 527.723 87.3176 522.952 82.537Z" fill="#9E6C5A"/>
<path d="M672.179 139.423C676.236 139.399 680.236 138.469 683.887 136.699C690.568 133.498 695.543 127.957 697.535 121.491C697.614 121.165 697.566 120.82 697.4 120.528C697.235 120.236 696.964 120.018 696.644 119.918C696.324 119.819 695.977 119.846 695.676 119.993C695.375 120.14 695.141 120.397 695.022 120.711C693.245 126.472 688.777 131.431 682.755 134.315C676.734 137.199 670.094 137.572 664.486 135.337C656.584 132.184 651.039 124.983 645.677 118.021C645.091 117.275 644.509 116.523 643.93 115.764C638.162 108.365 630.178 99.7689 619.543 98.9443C613.919 98.5153 608.572 100.37 603.403 102.172C599.188 103.642 594.838 105.157 590.463 105.339C584.646 105.582 578.759 103.037 574.268 98.3698C569.777 93.7022 567.468 87.699 567.937 81.8972C567.947 81.5573 567.826 81.2268 567.599 80.974C567.372 80.7212 567.057 80.5655 566.718 80.5391C566.38 80.5128 566.044 80.6178 565.781 80.8324C565.518 81.0469 565.347 81.3547 565.304 81.692C564.794 88.2474 567.371 94.9932 572.38 100.205C577.388 105.418 584.024 108.25 590.582 107.985C595.341 107.787 599.892 106.201 604.282 104.672C609.421 102.881 614.262 101.187 619.353 101.578C628.96 102.325 636.427 110.421 641.86 117.391C642.441 118.137 643.018 118.883 643.599 119.629C649.184 126.871 654.949 134.363 663.518 137.785C666.276 138.874 669.215 139.43 672.179 139.423Z" fill="#363E44"/>
<path d="M652.622 22.7323C663.514 22.7323 674.462 16.2775 679.08 6.31563C679.213 5.99974 679.219 5.64428 679.097 5.32406C678.974 5.00384 678.732 4.74384 678.422 4.5988C678.111 4.45376 677.757 4.43498 677.433 4.54643C677.109 4.65788 676.841 4.89085 676.685 5.19631C671.569 16.244 657.895 22.5308 646.206 19.2176C641.614 17.9192 637.563 15.4381 633.273 12.8114C631.351 11.6324 629.366 10.4161 627.344 9.33032C606.9 -1.66136 579.776 0.551155 561.376 14.718C561.098 14.9317 560.917 15.2471 560.872 15.5949C560.826 15.9427 560.921 16.2942 561.134 16.5723C561.347 16.8504 561.662 17.0321 562.009 17.0776C562.356 17.1231 562.707 17.0285 562.985 16.8148C580.584 3.26363 606.554 1.14439 626.097 11.6622C628.052 12.7107 630.007 13.9009 631.899 15.0649C636.151 17.6767 640.545 20.363 645.487 21.7622C647.809 22.4128 650.21 22.7393 652.622 22.7323Z" fill="#363E44"/>
<path d="M242.519 303.318H368.014C372.101 303.318 376.022 301.691 378.912 298.795C381.803 295.899 383.427 291.971 383.427 287.875H242.538L242.519 303.318Z" fill="#363E44"/>
<path d="M241.585 302.881L203.579 183.066C202.965 181.132 202.738 179.097 202.909 177.076C203.081 175.055 203.648 173.087 204.579 171.285C205.509 169.484 206.785 167.883 208.333 166.576C209.881 165.268 211.67 164.279 213.6 163.664L256.275 298.202L241.585 302.881Z" fill="#363E44"/>
<path d="M255.84 282.744C255.976 282.745 256.11 282.724 256.239 282.681C256.404 282.629 256.558 282.544 256.691 282.433C256.823 282.321 256.933 282.184 257.013 282.03C257.093 281.875 257.142 281.707 257.156 281.534C257.171 281.361 257.152 281.186 257.099 281.021L219.749 163.269C219.632 162.948 219.396 162.685 219.089 162.534C218.783 162.383 218.431 162.357 218.106 162.461C217.781 162.564 217.509 162.79 217.346 163.09C217.183 163.39 217.142 163.741 217.231 164.071L254.582 281.823C254.667 282.09 254.835 282.324 255.061 282.489C255.287 282.655 255.56 282.744 255.84 282.744Z" fill="white"/>
<path d="M722.627 446.387L492.533 343.783L527.258 188.881L519.87 154.608L610.591 120.387L625.758 152.541C625.758 152.541 700.775 222.304 722.627 446.387Z" fill="white"/>
<path d="M316.084 257.211C324.392 254.07 356.82 235.474 371.425 244.962C386.13 254.521 391.906 272.986 391.504 290.481C391.455 290.529 391.4 290.589 391.348 290.638C389.21 294.988 385.341 301.17 378.441 305.293C370.58 309.994 366.312 307.532 357.241 311.192C341.924 317.393 339.146 330.967 333.851 328.478C330.217 326.769 331.494 318.777 334.559 311.808C337.701 304.644 342.751 301.331 341.98 300.316C341.12 299.197 336.417 303.23 330.108 307.703C327.178 309.782 322.661 320.43 317.343 318.826C313.109 317.542 315.031 305.301 322.099 297.1C327.1 291.302 334.462 290.168 333.978 288.858C333.605 287.877 329.245 288.656 325.681 290.451C319.797 293.406 315.057 304.256 310.197 302.678C305.434 301.133 307.304 290.47 313.325 282.53C318.401 275.814 326.668 274.956 326.076 273.326C325.662 272.176 321.879 271.8 314.077 273.389C307.568 274.717 295.763 281.485 293.354 274.881C291.324 269.356 303.55 261.957 316.084 257.211Z" fill="#9E6C5A"/>
<path d="M529.783 268.19C548.201 274.905 560.453 292.814 559.201 312.332C558.375 325.122 551.72 338.147 531.507 345.538C482.292 363.488 375.574 290.609 375.574 290.609L363.158 242.404C419.281 241.251 479.082 249.728 529.783 268.19Z" fill="#9E6C5A"/>
<path d="M611.98 181.528L562.035 204.519L584.553 281.602C584.553 281.602 508.352 254.347 449.991 242.292L441.494 348.362L641.596 394.276C683.106 405.134 722.206 369.946 715.473 327.707C709.076 287.677 690.687 229.099 645.841 187.017C641.377 182.839 635.774 180.086 629.744 179.109C623.714 178.131 617.53 178.974 611.98 181.528Z" fill="white"/>
<path d="M656.968 397.596C674.749 397.596 691.741 389.787 703.605 375.557C703.811 375.286 703.904 374.946 703.866 374.607C703.827 374.269 703.661 373.959 703.4 373.74C703.14 373.522 702.805 373.412 702.466 373.434C702.127 373.457 701.81 373.609 701.579 373.859C686.915 391.451 664.058 398.79 641.931 392.996L595.438 382.329C595.097 382.25 594.739 382.31 594.443 382.496C594.146 382.682 593.936 382.978 593.857 383.319C593.779 383.661 593.839 384.019 594.024 384.316C594.21 384.613 594.505 384.824 594.846 384.903L641.301 395.563C646.415 396.908 651.68 397.591 656.968 397.596Z" fill="#363E44"/>
<path d="M584.538 282.925C584.878 282.921 585.202 282.787 585.447 282.552C585.626 282.386 585.756 282.174 585.821 281.939C585.887 281.703 585.886 281.455 585.82 281.22L575.21 244.891C575.165 244.72 575.086 244.56 574.978 244.42C574.87 244.28 574.735 244.163 574.581 244.077C574.427 243.99 574.258 243.935 574.082 243.915C573.907 243.895 573.729 243.91 573.56 243.96C573.391 244.01 573.233 244.093 573.096 244.205C572.96 244.317 572.847 244.455 572.764 244.611C572.682 244.767 572.631 244.939 572.616 245.115C572.6 245.291 572.62 245.469 572.674 245.637L582.561 279.496C574.398 276.631 546.723 267.064 514.876 257.651C514.548 257.574 514.202 257.627 513.911 257.797C513.62 257.968 513.404 258.243 513.309 258.567C513.214 258.892 513.246 259.24 513.399 259.541C513.552 259.843 513.814 260.074 514.131 260.188C551.91 271.351 583.794 282.731 584.11 282.847C584.248 282.897 584.392 282.923 584.538 282.925Z" fill="#363E44"/>
<path d="M570.272 234.084C570.481 234.084 570.687 234.035 570.873 233.939C571.059 233.844 571.22 233.706 571.343 233.536C571.465 233.366 571.546 233.17 571.578 232.963C571.61 232.756 571.593 232.545 571.527 232.346C561.473 201.721 598.909 187.719 600.51 187.137C600.828 187.008 601.083 186.761 601.222 186.448C601.362 186.135 601.374 185.779 601.258 185.457C601.141 185.134 600.904 184.87 600.596 184.719C600.289 184.568 599.935 184.543 599.609 184.648C599.196 184.801 558.144 200.106 569.017 233.174C569.104 233.439 569.272 233.669 569.498 233.833C569.723 233.996 569.994 234.084 570.272 234.084Z" fill="#363E44"/>
<rect x="525" y="503" width="155" height="274" fill="#03448A"/>
</svg>
